<svg width="69" height="69" viewBox="0 0 69 69" fill="none" xmlns="http://www.w3.org/2000/svg">
<rect width="69" height="69" rx="16" fill="#272726" style="fill:#272726;fill:color(display-p3 0.1525 0.1525 0.1475);fill-opacity:1;"/>
<path fill-rule="evenodd" clip-rule="evenodd" d="M51.5814 66H18.4186L18.2322 65.9989C10.417 65.8998 4.10016 59.583 4.00113 51.7678L4 51.5814V18.4186C4 10.4554 10.4554 4 18.4186 4H51.5814C59.5446 4 66 10.4554 66 18.4186V51.5814C66 59.4823 59.6451 65.8991 51.7678 65.9989L51.5814 66ZM42.3234 29.4053L41.7767 41.7047C41.7767 45.9372 39.9889 50.0674 36.6726 53.3837L27.7763 61.6744H51.5814C57.1556 61.6744 61.6744 57.1556 61.6744 51.5814V18.4186C61.6744 16.8527 61.3178 15.3701 60.6814 14.0476L60.5052 14.1066C56.8975 15.3145 53.2661 16.5303 49.9314 18.1348C45.2863 20.3699 42.535 24.7107 42.3234 29.4053ZM29.9199 32.6692L30.5892 25.7589C31.1112 20.3688 34.979 15.6917 40.6075 13.6441L55.5929 9.15421C54.3634 8.6211 53.0069 8.32558 51.5814 8.32558H18.4186C12.8444 8.32558 8.32558 12.8444 8.32558 18.4186V47.3219L17.3526 45.4996C24.2329 44.1105 29.3142 38.9229 29.9199 32.6692Z" fill="#E09952" style="fill:#E09952;fill:color(display-p3 0.8784 0.6000 0.3216);fill-opacity:1;"/>
</svg>
