<svg width="155" height="39" viewBox="0 0 155 39" fill="none" xmlns="http://www.w3.org/2000/svg">
<path d="M52.0215 37.1318C51.9043 37.0146 51.8457 36.7949 51.8457 36.4727C51.8457 36.0625 51.9043 35.8574 52.0215 35.8574C52.2852 35.8574 52.6367 35.8281 53.0762 35.7695C53.5156 35.6816 53.9258 35.5645 54.3066 35.418C54.6875 35.2715 54.9072 35.125 54.9658 34.9785C55.1709 34.2461 55.2734 32.9277 55.2734 31.0234V14.1045C55.2734 13.2549 55.2441 12.5078 55.1855 11.8633C55.1562 11.2188 55.083 10.7061 54.9658 10.3252C54.9072 10.1494 54.6729 9.98828 54.2627 9.8418C53.8818 9.69531 53.457 9.57812 52.9883 9.49023C52.5488 9.40234 52.1973 9.3584 51.9336 9.3584C51.8164 9.3584 51.7578 9.18262 51.7578 8.83105C51.7578 8.4502 51.8164 8.20117 51.9336 8.08398C52.6953 8.11328 53.501 8.14258 54.3506 8.17188C55.2295 8.17188 56.167 8.17188 57.1631 8.17188C57.8369 8.17188 58.7451 8.15723 59.8877 8.12793C61.0303 8.09863 62.4072 8.05469 64.0186 7.99609C65.6592 7.9375 67.0801 7.89355 68.2812 7.86426C69.5117 7.83496 70.5371 7.82031 71.3574 7.82031C71.416 8.23047 71.5039 8.72852 71.6211 9.31445C71.7383 9.87109 71.8848 10.4863 72.0605 11.1602C72.207 11.8633 72.3242 12.4346 72.4121 12.874C72.5293 13.3135 72.6025 13.6211 72.6318 13.7969C72.4854 13.9434 72.2217 14.0166 71.8408 14.0166C71.46 14.0166 71.2549 13.9141 71.2256 13.709C70.7861 12.0977 70.1709 11.0723 69.3799 10.6328C68.5889 10.1641 67.5049 9.92969 66.1279 9.92969H63.1836C60.6348 9.92969 59.3457 10.1201 59.3164 10.501C59.2578 10.8525 59.1992 11.3359 59.1406 11.9512C59.1113 12.5664 59.0967 13.3135 59.0967 14.1924V21.3555C59.0967 21.5312 59.7119 21.6191 60.9424 21.6191H63.2715C64.5898 21.6191 65.542 21.5752 66.1279 21.4873C66.7139 21.3701 67.124 21.1211 67.3584 20.7402C67.5928 20.3301 67.8125 19.6855 68.0176 18.8066L68.1055 18.4111C68.1348 18.2061 68.3545 18.1035 68.7646 18.1035C69.1162 18.1035 69.3652 18.1768 69.5117 18.3232V26.8486C69.3945 26.9658 69.1602 27.0244 68.8086 27.0244C68.4277 27.0244 68.1934 26.9072 68.1055 26.6729C67.9883 26.2627 67.8857 25.9111 67.7979 25.6182C67.71 25.3252 67.6367 25.0762 67.5781 24.8711C67.4316 24.4609 67.3145 24.2266 67.2266 24.168C67.168 24.1094 67.0508 24.0215 66.875 23.9043C66.4648 23.6699 64.9121 23.5527 62.2168 23.5527C60.1367 23.5527 59.0967 23.6846 59.0967 23.9482V30.8916C59.0967 32.5908 59.2285 33.9531 59.4922 34.9785C59.5508 35.0957 59.7705 35.2275 60.1514 35.374C60.5322 35.5205 60.9424 35.6377 61.3818 35.7256C61.8213 35.8135 62.1289 35.8574 62.3047 35.8574C62.4219 35.8574 62.4805 36.0771 62.4805 36.5166C62.4805 36.6924 62.4512 36.8975 62.3926 37.1318C60.9277 37.0732 59.7705 37.0293 58.9209 37C58.0713 36.9414 57.5293 36.9121 57.2949 36.9121L52.0215 37.1318Z" fill="#272726" style="fill:#272726;fill:color(display-p3 0.1529 0.1529 0.1490);fill-opacity:1;"/>
<path d="M74.5988 37.1318C74.4816 37.0146 74.423 36.7656 74.423 36.3848C74.423 36.0332 74.4816 35.8574 74.5988 35.8574C74.8332 35.8574 75.1555 35.8135 75.5656 35.7256C75.9758 35.6377 76.3566 35.5205 76.7082 35.374C77.0598 35.2275 77.2502 35.0957 77.2795 34.9785C77.3967 34.5684 77.4699 34.0996 77.4992 33.5723C77.5578 33.0449 77.5871 32.4883 77.5871 31.9023V12.874C77.5871 11.8779 77.4992 10.9404 77.3234 10.0615C77.2063 9.59277 76.4592 9.3584 75.0822 9.3584H74.6867C74.5109 9.3584 74.423 9.19727 74.423 8.875C74.423 8.40625 74.5109 8.17188 74.6867 8.17188C76.4445 7.9668 77.7482 7.73242 78.5979 7.46875C79.4475 7.20508 80.0334 6.9707 80.3557 6.76562L80.7951 6.50195H80.883C81.0002 6.50195 81.1174 6.58984 81.2346 6.76562C81.3518 6.91211 81.425 7.05859 81.4543 7.20508C81.132 8.17188 80.9709 9.44629 80.9709 11.0283V31.0674C80.9709 31.917 81.0002 32.6641 81.0588 33.3086C81.1174 33.9531 81.2053 34.5098 81.3225 34.9785C81.3811 35.0957 81.5861 35.2275 81.9377 35.374C82.2893 35.5205 82.6701 35.6377 83.0803 35.7256C83.4904 35.8135 83.7834 35.8574 83.9592 35.8574C84.0471 35.8574 84.1057 36.0332 84.135 36.3848C84.1643 36.7363 84.1496 36.9854 84.091 37.1318L79.3889 36.9121L74.5988 37.1318Z" fill="#272726" style="fill:#272726;fill:color(display-p3 0.1529 0.1529 0.1490);fill-opacity:1;"/>
<path d="M95.5941 37.3076C93.8363 37.3076 92.225 36.8682 90.7602 35.9893C89.2953 35.1104 88.1234 33.9238 87.2445 32.4297C86.3949 30.9355 85.9701 29.2949 85.9701 27.5078C85.9701 25.6914 86.3803 24.0508 87.2006 22.5859C88.0502 21.1211 89.1928 19.9639 90.6283 19.1143C92.0639 18.2354 93.6898 17.7959 95.5062 17.7959C97.2641 17.7959 98.8607 18.2354 100.296 19.1143C101.761 19.9932 102.918 21.165 103.768 22.6299C104.647 24.0947 105.086 25.7207 105.086 27.5078C105.086 29.2949 104.662 30.9355 103.812 32.4297C102.962 33.9238 101.82 35.1104 100.384 35.9893C98.9779 36.8682 97.3812 37.3076 95.5941 37.3076ZM95.9896 35.5938C97.0443 35.5938 97.9672 35.2568 98.7582 34.583C99.5492 33.9092 100.164 33.001 100.604 31.8584C101.073 30.7158 101.307 29.4707 101.307 28.123C101.307 26.541 101.014 25.1055 100.428 23.8164C99.8422 22.498 99.0658 21.458 98.099 20.6963C97.1615 19.9053 96.1361 19.5098 95.0229 19.5098C93.9975 19.5098 93.0746 19.8467 92.2543 20.5205C91.4633 21.165 90.848 22.0439 90.4086 23.1572C89.9691 24.2412 89.7494 25.4717 89.7494 26.8486C89.7494 28.4307 90.0277 29.8955 90.5844 31.2432C91.1703 32.5615 91.932 33.6162 92.8695 34.4072C93.8363 35.1982 94.8764 35.5938 95.9896 35.5938Z" fill="#272726" style="fill:#272726;fill:color(display-p3 0.1529 0.1529 0.1490);fill-opacity:1;"/>
<path d="M117.468 37.4834C117.146 37.4834 116.97 37.4248 116.941 37.3076C116.589 36.5166 116.209 35.6523 115.798 34.7148C115.418 33.748 115.007 32.708 114.568 31.5947C113.66 29.3975 112.81 27.4199 112.019 25.6621C111.228 23.875 110.305 22.0439 109.251 20.1689C108.87 19.5244 108.079 19.2021 106.878 19.2021C106.76 19.2021 106.702 19.0117 106.702 18.6309C106.702 18.2793 106.76 18.0449 106.878 17.9277C107.493 17.957 108.181 18.0156 108.943 18.1035C109.705 18.1621 110.466 18.1768 111.228 18.1475L115.623 17.9277C115.681 18.0449 115.696 18.2939 115.667 18.6748C115.667 19.0264 115.623 19.2021 115.535 19.2021C114.07 19.2021 113.338 19.5391 113.338 20.2129C113.338 20.418 113.821 21.5166 114.788 23.5088C115.754 25.4717 117.014 28.2109 118.567 31.7266C119.592 28.8262 120.398 26.541 120.984 24.8711C121.599 23.2012 121.907 22.249 121.907 22.0146C121.907 21.8682 121.819 21.6191 121.643 21.2676C121.497 20.916 121.306 20.5205 121.072 20.0811C120.838 19.7295 120.515 19.4951 120.105 19.3779C119.695 19.2607 119.27 19.2021 118.831 19.2021C118.713 19.2021 118.655 19.0117 118.655 18.6309C118.655 18.2793 118.713 18.0449 118.831 17.9277C119.446 17.957 120.12 18.001 120.852 18.0596C121.614 18.1182 122.361 18.1475 123.093 18.1475C124.031 18.1475 124.851 18.1182 125.554 18.0596C126.287 18.001 126.902 17.957 127.4 17.9277C127.459 18.1621 127.488 18.4111 127.488 18.6748C127.488 18.9678 127.444 19.1436 127.356 19.2021C125.95 19.2021 125.247 19.7734 125.247 20.916C125.247 21.502 126.858 25.1055 130.081 31.7266C130.667 29.9102 131.238 28.2402 131.795 26.7168C132.351 25.1641 132.805 23.875 133.157 22.8496C133.508 21.7949 133.684 21.0918 133.684 20.7402C133.684 19.7148 132.717 19.2021 130.784 19.2021H130.608C130.491 19.2021 130.432 19.0117 130.432 18.6309C130.432 18.2793 130.491 18.0449 130.608 17.9277C131.253 17.957 131.956 18.001 132.717 18.0596C133.479 18.1182 134.255 18.1475 135.046 18.1475C135.75 18.1475 136.423 18.1182 137.068 18.0596C137.742 18.001 138.372 17.957 138.958 17.9277C139.016 18.1621 139.046 18.3818 139.046 18.5869C139.046 18.9971 138.972 19.2021 138.826 19.2021C138.445 19.2021 137.932 19.334 137.288 19.5977C136.643 19.832 136.218 20.2275 136.013 20.7842L130.256 36.5166C130.051 37.1611 129.641 37.4834 129.026 37.4834C128.704 37.4834 128.528 37.4248 128.499 37.3076L123.093 24.3877L118.655 36.5166C118.567 36.7217 118.406 36.9268 118.171 37.1318C117.966 37.3662 117.732 37.4834 117.468 37.4834Z" fill="#272726" style="fill:#272726;fill:color(display-p3 0.1529 0.1529 0.1490);fill-opacity:1;"/>
<path d="M139.738 37.1318C139.621 37.0146 139.562 36.7656 139.562 36.3848C139.562 36.0332 139.621 35.8574 139.738 35.8574C139.972 35.8574 140.295 35.8135 140.705 35.7256C141.115 35.6377 141.496 35.5205 141.847 35.374C142.199 35.2275 142.389 35.0957 142.419 34.9785C142.536 34.5684 142.609 34.0996 142.638 33.5723C142.697 33.0449 142.726 32.4883 142.726 31.9023V23.5967C142.726 22.4834 142.521 21.6924 142.111 21.2236C141.818 20.8721 141.467 20.6377 141.056 20.5205C140.676 20.4033 140.324 20.3447 140.002 20.3447C139.709 20.3154 139.562 20.2715 139.562 20.2129C139.562 19.5098 139.65 19.1436 139.826 19.1143C143.019 18.6162 144.865 18.2939 145.363 18.1475L146.11 17.9277C146.227 17.8984 146.301 18.0156 146.33 18.2793C146.359 18.543 146.359 18.7334 146.33 18.8506L146.066 21.0479C146.594 20.2568 147.311 19.5244 148.22 18.8506C149.157 18.1475 150.08 17.7959 150.988 17.7959C152.687 17.7959 153.83 18.2207 154.416 19.0703C154.416 20.0957 154.255 20.8428 153.932 21.3115C153.61 21.7803 153.215 22.0146 152.746 22.0146C152.219 22.0146 151.735 21.7656 151.296 21.2676C150.856 20.7695 150.256 20.5205 149.494 20.5205C148.908 20.5205 148.351 20.7256 147.824 21.1357C147.297 21.5166 146.872 22.0146 146.55 22.6299C146.257 23.2158 146.11 23.8311 146.11 24.4756V31.0674C146.11 31.917 146.139 32.6641 146.198 33.3086C146.257 33.9531 146.345 34.5098 146.462 34.9785C146.52 35.0957 146.725 35.2275 147.077 35.374C147.429 35.5205 147.809 35.6377 148.22 35.7256C148.659 35.8135 148.967 35.8574 149.142 35.8574C149.23 35.8574 149.289 36.0332 149.318 36.3848C149.347 36.7363 149.333 36.9854 149.274 37.1318L144.528 36.9121L139.738 37.1318Z" fill="#272726" style="fill:#272726;fill:color(display-p3 0.1529 0.1529 0.1490);fill-opacity:1;"/>
<path fill-rule="evenodd" clip-rule="evenodd" d="M29.9302 39H9.06977L8.9525 38.9993C4.03648 38.937 0.063001 34.9635 0.000708576 30.0475L0 29.9302V9.06977C0 4.06067 4.06067 1.38779e-07 9.06977 0H29.9302C34.9393 0 39 4.06067 39 9.06977V29.9302C39 34.9002 35.0025 38.9365 30.0475 38.9993L29.9302 39ZM24.1066 15.9808L23.7628 23.7174C23.7628 26.3798 22.6382 28.9779 20.5521 31.064L14.9561 36.2791H29.9302C33.4366 36.2791 36.2791 33.4366 36.2791 29.9302V9.06977C36.2791 8.08478 36.0548 7.15218 35.6544 6.32027L35.5436 6.35738C33.2742 7.11717 30.99 7.88195 28.8924 8.89124C25.9704 10.2972 24.2398 13.0277 24.1066 15.9808ZM16.3045 18.0338L16.7254 13.687C17.0538 10.2965 19.4868 7.35444 23.0273 6.06642L32.4536 3.24217C31.6802 2.90682 30.8269 2.72093 29.9302 2.72093H9.06977C5.5634 2.72093 2.72093 5.5634 2.72093 9.06977V27.2509L8.39919 26.1046C12.7272 25.2308 15.9235 21.9676 16.3045 18.0338Z" fill="#E09952" style="fill:#E09952;fill:color(display-p3 0.8784 0.6000 0.3216);fill-opacity:1;"/>
</svg>
