<svg width="39" height="39" viewBox="0 0 39 39" fill="none" xmlns="http://www.w3.org/2000/svg">
<path fill-rule="evenodd" clip-rule="evenodd" d="M29.9302 39H9.06977L8.9525 38.9993C4.03648 38.937 0.063001 34.9635 0.000708576 30.0475L0 29.9302V9.06977C0 4.06067 4.06067 1.38779e-07 9.06977 0H29.9302C34.9393 0 39 4.06067 39 9.06977V29.9302C39 34.9002 35.0026 38.9365 30.0475 38.9993L29.9302 39ZM24.1066 15.9808L23.7628 23.7174C23.7628 26.3798 22.6382 28.9779 20.5522 31.064L14.9561 36.2791H29.9302C33.4366 36.2791 36.2791 33.4366 36.2791 29.9302V9.06977C36.2791 8.08478 36.0548 7.15218 35.6544 6.32027L35.5436 6.35738C33.2742 7.11717 30.99 7.88195 28.8924 8.89124C25.9704 10.2972 24.2398 13.0277 24.1066 15.9808ZM16.3045 18.0338L16.7254 13.687C17.0538 10.2965 19.4868 7.35444 23.0273 6.06642L32.4536 3.24217C31.6802 2.90682 30.8269 2.72093 29.9302 2.72093H9.06977C5.5634 2.72093 2.72093 5.5634 2.72093 9.06977V27.2509L8.39919 26.1046C12.7272 25.2308 15.9235 21.9676 16.3045 18.0338Z" fill="#E09952" style="fill:#E09952;fill:color(display-p3 0.8784 0.6000 0.3216);fill-opacity:1;"/>
</svg>
