<svg width="156" height="39" viewBox="0 0 156 39" fill="none" xmlns="http://www.w3.org/2000/svg">
<path d="M52.1973 35L52.0654 33.1543L54.6143 32.5391C54.6436 32.4219 54.6729 32.0996 54.7021 31.5723C54.7314 31.0449 54.7461 30.3271 54.7461 29.4189C54.7754 28.5107 54.79 27.4121 54.79 26.123L54.834 17.7295C54.834 16.5283 54.8193 15.5029 54.79 14.6533C54.79 13.8037 54.7754 13.1299 54.7461 12.6318C54.7168 12.1045 54.6875 11.7969 54.6582 11.709L51.9336 11.0498L52.0654 9.2041H65.6885C66.1865 9.2041 66.7139 9.2041 67.2705 9.2041C67.8564 9.1748 68.457 9.14551 69.0723 9.11621C69.6875 9.08691 70.2734 9.05762 70.8301 9.02832L71.7969 15.0488L69.6436 15.3564L68.0615 11.6211C67.8271 11.5625 67.5635 11.5186 67.2705 11.4893C66.9775 11.46 66.6699 11.4453 66.3477 11.4453H61.9531C61.4844 11.4453 60.9863 11.46 60.459 11.4893C59.9609 11.5186 59.5508 11.5625 59.2285 11.6211C59.2285 11.7383 59.2139 11.9434 59.1846 12.2363C59.1846 12.5 59.1846 12.8662 59.1846 13.335C59.1846 13.8037 59.1846 14.3457 59.1846 14.9609C59.1846 15.5762 59.1846 16.2939 59.1846 17.1143L59.2285 26.8262C59.2285 27.9395 59.2285 28.9062 59.2285 29.7266C59.2578 30.5469 59.2871 31.1914 59.3164 31.6602C59.3457 32.1289 59.375 32.4219 59.4043 32.5391L62.9639 33.0664L62.876 35H52.1973ZM66.4795 26.4307L65.9521 23.3105C65.7178 23.252 65.4102 23.208 65.0293 23.1787C64.6484 23.1494 64.209 23.1348 63.7109 23.1348H60.415C60.0342 23.1348 59.6533 23.1494 59.2725 23.1787C58.8916 23.1787 58.4814 23.1934 58.042 23.2227V20.6299C58.3936 20.6592 58.7598 20.6885 59.1406 20.7178C59.5508 20.7471 59.9756 20.7617 60.415 20.7617H63.7109C64.2969 20.7617 64.7803 20.7471 65.1611 20.7178C65.542 20.6592 65.8057 20.6152 65.9521 20.5859L66.4795 17.6416H68.5889V26.4307H66.4795Z" fill="#272726" style="fill:#272726;fill:color(display-p3 0.1529 0.1529 0.1490);fill-opacity:1;"/>
<path d="M73.1926 35L73.0607 33.2422L75.9172 32.583C75.9758 32.3193 76.0197 31.8359 76.049 31.1328C76.0783 30.4004 76.1076 29.4775 76.1369 28.3643C76.1662 27.251 76.1809 25.9912 76.1809 24.585V19.0479C76.1809 17.9932 76.1662 16.9092 76.1369 15.7959C76.1369 14.6533 76.1223 13.584 76.093 12.5879C76.093 11.5918 76.0783 10.7275 76.049 9.99512C76.0197 9.2334 75.9904 8.69141 75.9611 8.36914L72.7092 7.92969L72.6213 6.34766L79.5647 4.45801L80.5314 5.11719C80.5022 6.34766 80.4729 7.57812 80.4436 8.80859C80.4143 10.0098 80.385 11.3574 80.3557 12.8516C80.3557 14.3164 80.3557 16.1035 80.3557 18.2129L80.3117 25.0684C80.3117 26.9141 80.3264 28.5547 80.3557 29.9902C80.4143 31.3965 80.4729 32.2607 80.5314 32.583L83.3879 33.2422L83.3 35H73.1926Z" fill="#272726" style="fill:#272726;fill:color(display-p3 0.1529 0.1529 0.1490);fill-opacity:1;"/>
<path d="M95.3305 35.3516C93.3676 35.3516 91.6537 34.9414 90.1889 34.1211C88.7533 33.3008 87.6254 32.1582 86.8051 30.6934C85.9848 29.1992 85.5746 27.5 85.5746 25.5957C85.5746 23.5449 86.0287 21.7871 86.9369 20.3223C87.8451 18.8281 89.0463 17.6709 90.5404 16.8506C92.0639 16.0303 93.7191 15.6201 95.5062 15.6201C97.352 15.6201 98.9779 16.0303 100.384 16.8506C101.79 17.6709 102.874 18.8135 103.636 20.2783C104.398 21.7139 104.779 23.3984 104.779 25.332C104.779 27.207 104.354 28.9062 103.504 30.4297C102.684 31.9238 101.556 33.125 100.121 34.0332C98.685 34.9121 97.0883 35.3516 95.3305 35.3516ZM95.7699 33.0664C96.6781 33.0664 97.4545 32.7881 98.099 32.2314C98.7729 31.6748 99.2855 30.8838 99.6371 29.8584C100.018 28.833 100.208 27.6465 100.208 26.2988C100.208 23.7793 99.725 21.7432 98.7582 20.1904C97.8207 18.6084 96.5463 17.8174 94.935 17.8174C93.5287 17.8174 92.3861 18.4473 91.5072 19.707C90.6576 20.9668 90.2328 22.6367 90.2328 24.7168C90.2328 26.3281 90.4672 27.7637 90.9359 29.0234C91.4047 30.2832 92.0639 31.2793 92.9135 32.0117C93.7631 32.7148 94.7152 33.0664 95.7699 33.0664Z" fill="#272726" style="fill:#272726;fill:color(display-p3 0.1529 0.1529 0.1490);fill-opacity:1;"/>
<path d="M128.587 35.1758L121.599 18.3887L119.402 17.6855L119.49 15.9717H128.367L128.455 17.6855L126.17 18.3887L131.091 30.9131L129.949 30.957L135.046 18.3887L132.761 17.6855L132.849 15.9717H139.88L139.968 17.6855L137.903 18.3887L130.125 35.1758H128.587ZM115.447 35.1758L108.108 18.3887L106.043 17.6855L106.13 15.9717H115.051L115.139 17.6855L112.942 18.3887L118.171 30.9131L116.809 30.957L122.434 18.125L123.753 20.8936L116.985 35.1758H115.447Z" fill="#272726" style="fill:#272726;fill:color(display-p3 0.1529 0.1529 0.1490);fill-opacity:1;"/>
<path d="M140.793 35L140.661 33.2861L143.386 32.583C143.415 32.4658 143.444 32.2168 143.473 31.8359C143.503 31.4551 143.532 30.9424 143.561 30.2979C143.591 29.6533 143.605 28.8916 143.605 28.0127L143.649 24.6289C143.649 23.6621 143.605 22.7539 143.517 21.9043C143.459 21.0547 143.371 20.3223 143.254 19.707L140.441 19.0918V17.4658L146.901 15.708L147.692 16.3672L147.516 19.9707L147.648 20.0146C148.498 18.3447 149.362 17.2168 150.241 16.6309C151.149 16.0449 152.028 15.752 152.878 15.752C153.581 15.752 154.181 15.9424 154.679 16.3232C155.178 16.6748 155.427 17.2314 155.427 17.9932C155.427 18.7549 155.163 19.3408 154.636 19.751C154.108 20.1611 153.449 20.3662 152.658 20.3662C152.072 20.3662 151.53 20.249 151.032 20.0146C150.534 19.7803 150.036 19.4287 149.538 18.96L150.417 19.1797C149.919 19.5312 149.435 20 148.967 20.5859C148.498 21.1719 148.073 21.8896 147.692 22.7393L147.736 26.6064C147.765 27.4561 147.795 28.291 147.824 29.1113C147.853 29.9023 147.883 30.6055 147.912 31.2207C147.941 31.8359 147.971 32.29 148 32.583L151.823 33.1982L151.691 35H140.793Z" fill="#272726" style="fill:#272726;fill:color(display-p3 0.1529 0.1529 0.1490);fill-opacity:1;"/>
<path fill-rule="evenodd" clip-rule="evenodd" d="M29.9302 39H9.06977L8.9525 38.9993C4.03648 38.937 0.063001 34.9635 0.000708576 30.0475L0 29.9302V9.06977C0 4.06067 4.06067 1.38779e-07 9.06977 0H29.9302C34.9393 0 39 4.06067 39 9.06977V29.9302C39 34.9002 35.0025 38.9365 30.0475 38.9993L29.9302 39ZM24.1066 15.9808L23.7628 23.7174C23.7628 26.3798 22.6382 28.9779 20.5521 31.064L14.9561 36.2791H29.9302C33.4366 36.2791 36.2791 33.4366 36.2791 29.9302V9.06977C36.2791 8.08478 36.0548 7.15218 35.6544 6.32027L35.5436 6.35738C33.2742 7.11717 30.99 7.88195 28.8924 8.89124C25.9704 10.2972 24.2398 13.0277 24.1066 15.9808ZM16.3045 18.0338L16.7254 13.687C17.0538 10.2965 19.4868 7.35444 23.0273 6.06642L32.4536 3.24217C31.6802 2.90682 30.8269 2.72093 29.9302 2.72093H9.06977C5.5634 2.72093 2.72093 5.5634 2.72093 9.06977V27.2509L8.39919 26.1046C12.7272 25.2308 15.9235 21.9676 16.3045 18.0338Z" fill="#E09952" style="fill:#E09952;fill:color(display-p3 0.8784 0.6000 0.3216);fill-opacity:1;"/>
</svg>
