<svg width="155" height="155" viewBox="0 0 155 155" fill="none" xmlns="http://www.w3.org/2000/svg">
<path d="M68.8904 5.52486C71.974 -1.84149 82.4108 -1.84148 85.4944 5.52486L85.9933 6.7167C97.6553 34.576 119.809 56.7295 147.668 68.3915L148.86 68.8904C156.226 71.974 156.226 82.4108 148.86 85.4944L147.668 85.9933C119.809 97.6553 97.6553 119.809 85.9933 147.668L85.4943 148.86C82.4108 156.226 71.974 156.226 68.8904 148.86L68.3915 147.668C56.7295 119.809 34.576 97.6553 6.71669 85.9933L5.52486 85.4943C-1.84149 82.4108 -1.84148 71.974 5.52486 68.8904L6.7167 68.3915C34.576 56.7295 56.7295 34.576 68.3915 6.71669L68.8904 5.52486Z" fill="#E9E9E2" style="fill:#E9E9E2;fill:color(display-p3 0.9150 0.9150 0.8850);fill-opacity:1;"/>
</svg>
