<svg width="100" height="100" viewBox="0 0 100 100" fill="none" xmlns="http://www.w3.org/2000/svg">
<path d="M12.5 6H18V13H12.5V6Z" fill="#F3F3F2" style="fill:#F3F3F2;fill:color(display-p3 0.9529 0.9529 0.9490);fill-opacity:1;"/>
<path d="M82 6H88V13H82V6Z" fill="#F3F3F2" style="fill:#F3F3F2;fill:color(display-p3 0.9529 0.9529 0.9490);fill-opacity:1;"/>
<path d="M6 0H12.5V6H6V0Z" fill="#F3F3F2" style="fill:#F3F3F2;fill:color(display-p3 0.9529 0.9529 0.9490);fill-opacity:1;"/>
<path d="M88 0H94V6H88V0Z" fill="#F3F3F2" style="fill:#F3F3F2;fill:color(display-p3 0.9529 0.9529 0.9490);fill-opacity:1;"/>
<path fill-rule="evenodd" clip-rule="evenodd" d="M100 25H94V18H88H82V13H75V18H69V13V6H63V13V18H57H51H43H37V13V6H31V13V18H25V13H18V18H13H6V25H0V31V37V43V51V57V63V69V75H6V82H13H18H25V88V94H31V88V82H37V88V94V100H43V94H51H57V100H63V94V88V82H69V88V94H75V88V82H82H88H94V75H100V69V63V57V51V43V37V31V25ZM13 43V37H18H25H31V43V51H25H18H13V43ZM88 37V43V51H82H75H69V43V37H75H82H88ZM37 69V63H43V57H51H57V63H63V69H57V63H51H43V69H37Z" fill="#F3F3F2" style="fill:#F3F3F2;fill:color(display-p3 0.9529 0.9529 0.9490);fill-opacity:1;"/>
</svg>
