<svg width="100" height="100" viewBox="0 0 100 100" fill="none" xmlns="http://www.w3.org/2000/svg">
<path d="M6 0H12V6H6V0Z" fill="#F3F3F2" style="fill:#F3F3F2;fill:color(display-p3 0.9529 0.9529 0.9490);fill-opacity:1;"/>
<path d="M87 0H93V6H87V0Z" fill="#F3F3F2" style="fill:#F3F3F2;fill:color(display-p3 0.9529 0.9529 0.9490);fill-opacity:1;"/>
<path d="M12 6H18V13H12V6Z" fill="#F3F3F2" style="fill:#F3F3F2;fill:color(display-p3 0.9529 0.9529 0.9490);fill-opacity:1;"/>
<path d="M81 6H87V13H81V6Z" fill="#F3F3F2" style="fill:#F3F3F2;fill:color(display-p3 0.9529 0.9529 0.9490);fill-opacity:1;"/>
<path fill-rule="evenodd" clip-rule="evenodd" d="M37 6H31V13V19H25V13H18V19H12H6V25H0V31V38V44V50V56V63V69V75H6V81H12H18H25V88V94H31V88V81H37V88V94V100H43V94H50H56V100H62V94V88V81H68V88V94H75V88V81H81H87H93V75H100V69V63V56V50V44V38V31V25H93V19H87H81V13H75V19H68V13V6H62V13V19H56H50H43H37V13V6ZM12 38H18V44H25H31V50H25H18H12V44V38ZM68 38H75V44H81H87V50H81H75H68V44V38ZM50 63H56V69H50V63Z" fill="#F3F3F2" style="fill:#F3F3F2;fill:color(display-p3 0.9529 0.9529 0.9490);fill-opacity:1;"/>
</svg>
