<svg width="100" height="100" viewBox="0 0 100 100" fill="none" xmlns="http://www.w3.org/2000/svg">
<path d="M13 6H19V13H13V6Z" fill="#1A1918" style="fill:#1A1918;fill:color(display-p3 0.1020 0.0980 0.0941);fill-opacity:1;"/>
<path d="M81 6H88V13H81V6Z" fill="#1A1918" style="fill:#1A1918;fill:color(display-p3 0.1020 0.0980 0.0941);fill-opacity:1;"/>
<path d="M6 0H13V6H6V0Z" fill="#1A1918" style="fill:#1A1918;fill:color(display-p3 0.1020 0.0980 0.0941);fill-opacity:1;"/>
<path d="M88 0H94V6H88V0Z" fill="#1A1918" style="fill:#1A1918;fill:color(display-p3 0.1020 0.0980 0.0941);fill-opacity:1;"/>
<path fill-rule="evenodd" clip-rule="evenodd" d="M100 25H94V19H88H81V13H75V19H69V13V6H63V13V19H56H50H44H38V13V6H31V13V19H25V13H19V19H13H6V25H0V31V38V44V50V56V63V69V75H6V81H13H19H25V88V94H31V88V81H38V88V94V100H44V94H50H56V100H63V94V88V81H69V88V94H75V88V81H81H88H94V75H100V69V63V56V50V44V38V31V25ZM13 50V44H31V50H25H19H13ZM88 44V50H81H75H69V44H88ZM38 63V56H44V63H50H56V56H63V63H56V69H50H44V63H38Z" fill="#1A1918" style="fill:#1A1918;fill:color(display-p3 0.1020 0.0980 0.0941);fill-opacity:1;"/>
</svg>
